<?xml version="1.0" encoding="UTF-8"?>
<!DOCTYPE svg PUBLIC "-//W3C//DTD SVG 1.1//EN" "http://www.w3.org/Graphics/SVG/1.1/DTD/svg11.dtd">
<!-- Creator: CorelDRAW 2017 -->
<svg xmlns="http://www.w3.org/2000/svg" xml:space="preserve" width="42.3332mm" height="27.8552mm" version="1.1" style="shape-rendering:geometricPrecision; text-rendering:geometricPrecision; image-rendering:optimizeQuality; fill-rule:evenodd; clip-rule:evenodd"
viewBox="0 0 4233.32 2785.52"
 xmlns:xlink="http://www.w3.org/1999/xlink">
 <defs>
  <style type="text/css">
   <![CDATA[
    .str1 {stroke:#ECC424;stroke-width:26.45;stroke-miterlimit:22.9256}
    .str0 {stroke:#ECC424;stroke-width:88.19;stroke-miterlimit:22.9256}
    .fil0 {fill:none}
    .fil1 {fill:#ECC424}
   ]]>
  </style>
 </defs>
 <g id="Layer_x0020_1">
  <metadata id="CorelCorpID_0Corel-Layer"/>
  <rect class="fil0 str0" x="-0" y="-1.92" width="4233.33" height="2789.36"/>
  <path class="fil1 str1" d="M2316.02 856.66l44.3 44.3c10.1,10.11 26.68,10.11 36.78,0 10.11,-10.1 10.11,-26.67 0,-36.77l-87.93 -87.95 -0.76 -0.79c-0.96,-0.97 -2.02,-1.85 -3.13,-2.66l-0.99 -0.69c-10.2,-6.88 -24.09,-5.42 -32.78,3.27 -0.58,0.58 -1.14,1.2 -1.67,1.84l-0.19 0.23 -86.83 86.82c-10.11,10.11 -10.1,26.69 0,36.79 10.11,10.11 26.68,10.11 36.79,0l44.39 -44.4 0 899.8 -606.1 0c-14.29,0 -26.01,11.72 -26.01,26.01 0,14.28 11.72,26 26.01,26l606.1 0 0 183.29c0,14.29 11.72,26.01 26.01,26.01 14.28,0 26.01,-11.72 26.01,-26.01l0 -183.29 196.56 0 -44.37 44.36c-10.11,10.1 -10.1,26.67 0,36.78 10.11,10.11 26.67,10.1 36.78,0l87.93 -87.93 0.8 -0.76c0.95,-0.95 1.84,-1.97 2.62,-3.06l0.73 -1.06c6.89,-10.22 5.43,-24.09 -3.26,-32.79 -0.6,-0.59 -1.22,-1.15 -2.29,-2.07l-86.62 -86.62c-10.1,-10.1 -26.67,-10.1 -36.78,0 -10.1,10.11 -10.1,26.68 0,36.79l44.35 44.35 -196.45 0 0 -899.79z"/>
 </g>
</svg>
