<?xml version="1.0" encoding="UTF-8"?>
<!DOCTYPE svg PUBLIC "-//W3C//DTD SVG 1.1//EN" "http://www.w3.org/Graphics/SVG/1.1/DTD/svg11.dtd">
<!-- Creator: CorelDRAW 2017 -->
<svg xmlns="http://www.w3.org/2000/svg" xml:space="preserve" width="20mm" height="20mm" version="1.1" style="shape-rendering:geometricPrecision; text-rendering:geometricPrecision; image-rendering:optimizeQuality; fill-rule:evenodd; clip-rule:evenodd"
viewBox="0 0 2000 2000"
 xmlns:xlink="http://www.w3.org/1999/xlink">
 <defs>
  <style type="text/css">
   <![CDATA[
    .str0 {stroke:#ECC424;stroke-width:7.62;stroke-miterlimit:22.9256}
    .fil0 {fill:#ECC424}
   ]]>
  </style>
 </defs>
 <g id="Layer_x0020_1">
  <metadata id="CorelCorpID_0Corel-Layer"/>
  <path class="fil0 str0" d="M1414.64 1060.03l0 -333.2c0,-78.32 -63.51,-141.83 -141.83,-141.83l-546.33 0c-78.33,0 -141.84,63.51 -141.84,141.83l0 546.33c0,72.36 54.2,132.07 124.21,140.75 106.5,0 213.6,-1.27 318.98,-0.75 45.66,-0.52 88.8,-25.18 114.74,-61.64 55.21,-77.54 116.04,-33.34 106.91,10.8 -16.48,79.36 -87.9,136.59 -169.76,136.59 -136.46,0 -272.73,1.09 -409.19,1.09 -94.39,0 -170.89,-76.51 -170.89,-170.89l0 -658.23c0,-94.37 76.5,-170.88 170.89,-170.88l658.23 0c94.38,0 170.88,76.51 170.88,170.88 0,144.63 0.72,287.66 0.72,431.91 0,86.73 -73.84,171.44 -163.45,171.44 -51.61,0 -97.88,-22.87 -129.21,-59.04 -31.32,35.7 -77.26,58.24 -128.49,58.24 -30.13,0 -60.45,-0.09 -90.72,-0.19l0 -0.16 -101.43 0c-94.37,0 -170.88,-76.5 -170.88,-170.88 0,-60.08 0.65,-119.03 0.65,-179.11 0,-94.37 76.5,-170.88 170.88,-170.88 63.85,0 128.55,0.43 191.81,0.43 32.3,0 62.51,8.96 88.28,24.54 5.35,-34.35 31.48,-31.1 41.73,-31.09 11.44,0.01 41.43,-3.31 42.3,44.65l1.3 256.65c-0.01,56.78 26.34,127.31 79.47,128.42 50.52,1.06 82.04,-74.52 82.04,-115.78zm-381.61 128.05c73.77,-5.02 132.07,-66.45 132.06,-141.49l0 -76.46c-4.81,-73.97 -66.34,-132.5 -141.53,-132.49l-81.51 -0.41c-77.58,0.86 -140.23,64.03 -140.22,141.82l0 80.63c6.76,72.03 67.39,128.41 141.19,128.4l90.01 0z"/>
 </g>
</svg>
