<?xml version="1.0" encoding="UTF-8"?>
<!DOCTYPE svg PUBLIC "-//W3C//DTD SVG 1.1//EN" "http://www.w3.org/Graphics/SVG/1.1/DTD/svg11.dtd">
<!-- Creator: CorelDRAW 2017 -->
<svg xmlns="http://www.w3.org/2000/svg" xml:space="preserve" width="20mm" height="20mm" version="1.1" style="shape-rendering:geometricPrecision; text-rendering:geometricPrecision; image-rendering:optimizeQuality; fill-rule:evenodd; clip-rule:evenodd"
viewBox="0 0 2000 2000"
 xmlns:xlink="http://www.w3.org/1999/xlink">
 <defs>
  <style type="text/css">
   <![CDATA[
    .str0 {stroke:#ECC424;stroke-width:7.62;stroke-miterlimit:22.9256}
    .fil1 {fill:#ECC424}
    .fil0 {fill:#ECC424;fill-rule:nonzero}
   ]]>
  </style>
 </defs>
 <g id="Layer_x0020_1">
  <metadata id="CorelCorpID_0Corel-Layer"/>
  <g id="_818141643120">
   <path class="fil0 str0" d="M1000.01 828.79c-94.41,0 -171.22,76.8 -171.22,171.21 0,94.41 76.81,171.21 171.22,171.21 94.4,0 171.2,-76.8 171.2,-171.21 0,-94.41 -76.8,-171.21 -171.2,-171.21z"/>
   <path class="fil0 str0" d="M840.77 660.31c-109.93,0 -199.37,89.43 -199.37,199.36l0 280.64c0,109.93 89.44,199.37 199.37,199.37l318.47 0c109.92,0 199.36,-89.44 199.36,-199.37l0 -280.64c0,-109.93 -89.44,-199.36 -199.36,-199.36l-318.47 0zm431.25 118.53c0,26.14 -21.19,47.33 -47.33,47.33 -26.16,0 -47.36,-21.19 -47.36,-47.33 0,-26.16 21.2,-47.35 47.36,-47.35 26.14,0 47.33,21.19 47.33,47.35zm-272.02 -7.03c125.82,0 228.17,102.34 228.17,228.17 0,125.82 -102.35,228.19 -228.17,228.19 -125.83,0 -228.17,-102.37 -228.17,-228.19 0,-125.83 102.34,-228.17 228.17,-228.17z"/>
   <path class="fil1 str0" d="M1500 1329.11c0,94.38 -76.5,170.89 -170.88,170.89l-658.23 0c-94.39,0 -170.89,-76.51 -170.89,-170.89l0 -658.23c0,-94.37 76.5,-170.88 170.89,-170.88l658.23 0c94.38,0 170.88,76.51 170.88,170.88l0 658.23zm-659.23 -725.76l318.47 0c141.33,0 256.33,114.98 256.33,256.32l0 280.64c0,141.34 -115,256.34 -256.33,256.34l-318.47 0c-141.34,0 -256.34,-115 -256.34,-256.34l0 -280.64c0,-141.34 115,-256.32 256.34,-256.32z"/>
  </g>
 </g>
</svg>
