<?xml version="1.0" encoding="UTF-8"?>
<!DOCTYPE svg PUBLIC "-//W3C//DTD SVG 1.1//EN" "http://www.w3.org/Graphics/SVG/1.1/DTD/svg11.dtd">
<!-- Creator: CorelDRAW 2017 -->
<svg xmlns="http://www.w3.org/2000/svg" xml:space="preserve" width="42.3332mm" height="27.8552mm" version="1.1" style="shape-rendering:geometricPrecision; text-rendering:geometricPrecision; image-rendering:optimizeQuality; fill-rule:evenodd; clip-rule:evenodd"
viewBox="0 0 4233.32 2785.52"
 xmlns:xlink="http://www.w3.org/1999/xlink">
 <defs>
  <style type="text/css">
   <![CDATA[
    .str1 {stroke:#ECC424;stroke-width:26.45;stroke-miterlimit:22.9256}
    .str0 {stroke:#ECC424;stroke-width:88.19;stroke-miterlimit:22.9256}
    .fil0 {fill:none}
    .fil1 {fill:#ECC424}
   ]]>
  </style>
 </defs>
 <g id="Layer_x0020_1">
  <metadata id="CorelCorpID_0Corel-Layer"/>
  <rect class="fil0 str0" x="-0" y="-1.92" width="4233.33" height="2789.36"/>
  <path class="fil1 str1" d="M1664.78 1515.92c36.51,160.92 71.66,322.15 108.99,482.89 7.93,34.1 27.63,14.65 45.59,-0.21 100.03,-82.75 191.52,-175.46 286.74,-263.58 54.61,27.61 109.16,55.38 163.63,83.26 48.38,24.74 97.07,48.88 144.64,75.16 26.77,14.79 50.15,-3.52 60.44,-28.52 66.82,-162.39 133.73,-324.74 198.81,-487.84 76.25,-191.07 150.65,-383.01 216.73,-577.87 12.2,-35.97 -20.36,-34.99 -45.07,-26.66 -501.82,169.13 -991.73,371.88 -1494.99,536.75 -8.4,2.76 -14.29,27.43 -5.92,33.01 99.71,66.45 212.45,112.02 318.82,166.61l1.59 7zm17.77 -44.31l-270.65 -140.97 1314.05 -476.33 -1043.4 617.3zm26.21 38.9l845.95 -504.62c-219.66,166.15 -440.81,335.68 -655.4,507.36 -18.01,14.41 -70.87,52.85 -75.23,75.18 -18.1,92.61 -23.98,191.06 -36.07,285.34l-79.25 -363.26zm151.61 95.53l202.81 110.34 -244.56 226.66 41.75 -337zm959.8 -753.24l-388.57 989.59 -544.03 -274.6 932.6 -714.99z"/>
 </g>
</svg>
