<?xml version="1.0" encoding="UTF-8"?>
<!DOCTYPE svg PUBLIC "-//W3C//DTD SVG 1.1//EN" "http://www.w3.org/Graphics/SVG/1.1/DTD/svg11.dtd">
<!-- Creator: CorelDRAW 2017 -->
<svg xmlns="http://www.w3.org/2000/svg" xml:space="preserve" width="42.3332mm" height="27.8552mm" version="1.1" style="shape-rendering:geometricPrecision; text-rendering:geometricPrecision; image-rendering:optimizeQuality; fill-rule:evenodd; clip-rule:evenodd"
viewBox="0 0 4233.32 2785.52"
 xmlns:xlink="http://www.w3.org/1999/xlink">
 <defs>
  <style type="text/css">
   <![CDATA[
    .str0 {stroke:#ECC424;stroke-width:88.19;stroke-miterlimit:22.9256}
    .str1 {stroke:#ECC424;stroke-width:7.62;stroke-miterlimit:22.9256}
    .fil0 {fill:none}
    .fil1 {fill:#ECC424}
   ]]>
  </style>
 </defs>
 <g id="Layer_x0020_1">
  <metadata id="CorelCorpID_0Corel-Layer"/>
  <rect class="fil0 str0" x="-0" y="-1.92" width="4233.33" height="2789.36"/>
  <path class="fil1 str1" d="M2781.41 924.34l-140.68 196.37c10.21,15.96 13.99,35.15 10.47,53.92 -7.6,40.48 -46.6,67.16 -87.08,59.56 -16.12,-3.02 -30.63,-11.17 -41.55,-23.27l-105.57 37.2c5.02,9.69 6.71,20.81 4.66,31.73 -5.02,26.74 -30.78,44.36 -57.52,39.35 -1.02,-0.19 -2.04,-0.42 -3.05,-0.67 -18.67,18.37 -45.25,26.57 -71.19,21.69 -15.39,-2.89 -29.47,-10.12 -40.71,-20.89l-196.19 99.82c0.86,6.63 0.66,13.36 -0.57,19.96 -6.44,34.31 -39.25,57 -73.54,51.05l-245.49 397.42c15.43,18.1 21.94,42.17 17.5,65.79 -8.04,42.85 -49.28,71.06 -92.12,63.02 -42.85,-8.04 -71.07,-49.29 -63.03,-92.14 0.95,-5.01 2.36,-9.92 4.24,-14.65l-136.92 -87.7c-16.2,11.54 -36.34,16.04 -56.07,12.35 -39.8,-7.47 -66.01,-45.8 -58.54,-85.6 7.47,-39.8 45.8,-66.01 85.59,-58.54 5.44,1.02 10.73,2.64 15.79,4.84l190.91 -280.51c-13.35,-16.63 -18.87,-38.24 -14.89,-59.43 7.47,-39.8 45.79,-66.01 85.59,-58.54 32.39,6.08 56.57,32.99 59.51,65.34l166.4 29.25c14.21,-20.52 39.31,-31.02 64.17,-26.35 8.56,1.6 16.66,4.91 23.85,9.76l199.79 -101.66c-1.28,-8.76 -1.09,-17.68 0.55,-26.42 8.19,-43.62 50.21,-72.36 93.83,-64.18 18.66,3.51 35.4,13.48 47.35,28.07l136.38 -48.06c-0.09,-5.06 0.35,-10.12 1.28,-15.1 7.6,-40.48 46.6,-67.15 87.08,-59.55 2.43,0.45 4.83,1.03 7.2,1.72l140.67 -196.37c-11.84,-17.47 -16.34,-38.83 -12.42,-59.74 8.17,-43.52 50.09,-72.19 93.61,-64.02 43.53,8.16 72.2,50.08 64.03,93.6 -8.17,43.53 -50.09,72.2 -93.61,64.03 -3.28,-0.61 -6.53,-1.43 -9.71,-2.45zm-853.56 518.19l-171.19 -30.08c-16.31,21.81 -43.5,32.88 -70.58,28.45l-198.48 291.64c6,13.54 7.75,28.52 5,43.16 -0.16,0.87 -0.34,1.75 -0.53,2.61l142.89 91.52c16.09,-8.96 34.73,-12.02 52.94,-8.6 0.07,0.01 0.15,0.02 0.23,0.04l247.38 -400.47c-3.49,-5.66 -6.08,-11.82 -7.66,-18.27z"/>
 </g>
</svg>
